# xmcd
#
# Track frame offsets: 
#        150
#        16112
#        32912
#        50303
#        65525
#        82440
#        101302
#        115957
#        130507
#        148212
#        164210
#        179540
#        198996
#        215966
#        235158
#        250282
#        267986
#        283665
#        300197
#        315021
#
# Disc length: 4428 seconds
#
# Revision: 0
# Processed by: cddbd v1.5.2PL0 Copyright (c) Steve Scherf et al.
# Submitted via: ExactAudioCopy v0.95b4
#
DISCID=24114a14
DTITLE=Various Artist - Top Hits Y2K Volume 2
DYEAR=2000
DGENRE=Dance
TTITLE0=Touch Of Joy - I Can't Let You Go
TTITLE1=Moloko - The Time Is Now
TTITLE2=Dj Jurgen - Higher and Higher
TTITLE3=Astroline - Angels
TTITLE4=Mysterious Woman - This Is Your Life
TTITLE5=Da Boy Tommy - Candyman
TTITLE6=Dj Bart - Get Up Aah
TTITLE7=The Oh - I'm On My Way
TTITLE8=Lutricia McNeal - Fly Away
TTITLE9=Big Time Charlie Feat. Soozy Q - Mister Devil
TTITLE10=Liberty - Why
TTITLE11=Da Rick - Confusion
TTITLE12=Marshall Masters Feat. Da TMC - Anybody Outthere
TTITLE13=Drop Out - My Name Is Rose
TTITLE14=Klangwerk - Waterman
TTITLE15=Alena - Turn It Around
TTITLE16=Kama Sutra - Move Your Lingam To My Yoni
TTITLE17=Maincrashers - Atlantis 2000
TTITLE18=The Oblique - Trip-Le
TTITLE19=Maurizzio - New Emotion 2000 (Full Trance Works Instrumental 
TTITLE19=Remix)
EXTD=
EXTT0=
EXTT1=
EXTT2=
EXTT3=
EXTT4=
EXTT5=
EXTT6=
EXTT7=
EXTT8=
EXTT9=
EXTT10=
EXTT11=
EXTT12=
EXTT13=
EXTT14=
EXTT15=
EXTT16=
EXTT17=
EXTT18=
EXTT19=
PLAYORDER=
